<?xml version="1.0" encoding="UTF-8" standalone="no"?>
<!DOCTYPE svg PUBLIC "-//W3C//DTD SVG 1.1//EN"
 "http://www.w3.org/Graphics/SVG/1.1/DTD/svg11.dtd">
<!-- Generated by graphviz version 2.43.0 (0)
 -->
<!-- Title: CarbonableFarmer Pages: 1 -->
<svg width="3706pt" height="700pt"
 viewBox="0.00 0.00 3705.67 699.86" xmlns="http://www.w3.org/2000/svg" xmlns:xlink="http://www.w3.org/1999/xlink">
<g id="graph0" class="graph" transform="scale(1 1) rotate(0) translate(4 695.86)">
<title>CarbonableFarmer</title>
<polygon fill="white" stroke="transparent" points="-4,4 -4,-695.86 3701.67,-695.86 3701.67,4 -4,4"/>
<!-- 0 -->
<g id="node1" class="node">
<title>0</title>
<ellipse fill="lightcoral" stroke="black" cx="2939.23" cy="-513.87" rx="148.67" ry="18"/>
<text text-anchor="middle" x="2939.23" y="-510.17" font-family="Helvetica,Arial,sans-serif" font-size="14.00">starkware.cairo.common.alloc.alloc</text>
</g>
<!-- 3 -->
<g id="node2" class="node">
<title>3</title>
<ellipse fill="lightcoral" stroke="black" cx="3457.19" cy="-277.87" rx="207.16" ry="18"/>
<text text-anchor="middle" x="3457.19" y="-274.17" font-family="Helvetica,Arial,sans-serif" font-size="14.00">starkware.starknet.common.syscalls.storage_read</text>
</g>
<!-- 11 -->
<g id="node3" class="node">
<title>11</title>
<ellipse fill="lightcoral" stroke="black" cx="2939.23" cy="-307.87" rx="207.96" ry="18"/>
<text text-anchor="middle" x="2939.23" y="-304.17" font-family="Helvetica,Arial,sans-serif" font-size="14.00">starkware.starknet.common.syscalls.storage_write</text>
</g>
<!-- 19 -->
<g id="node4" class="node">
<title>19</title>
<ellipse fill="lightcoral" stroke="black" cx="2939.23" cy="-459.87" rx="198.76" ry="18"/>
<text text-anchor="middle" x="2939.23" y="-456.17" font-family="Helvetica,Arial,sans-serif" font-size="14.00">starkware.starknet.common.syscalls.emit_event</text>
</g>
<!-- 29 -->
<g id="node5" class="node">
<title>29</title>
<ellipse fill="lightcoral" stroke="black" cx="2390.87" cy="-468.87" rx="263.75" ry="18"/>
<text text-anchor="middle" x="2390.87" y="-465.17" font-family="Helvetica,Arial,sans-serif" font-size="14.00">openzeppelin.access.ownable.library.OwnershipTransferred.emit</text>
</g>
<!-- 29&#45;&gt;0 -->
<g id="edge1" class="edge">
<title>29&#45;&gt;0</title>
<path fill="none" stroke="black" stroke-width="2" d="M2559.88,-482.71C2640.58,-489.35 2735.73,-497.19 2810.42,-503.34"/>
<polygon fill="black" stroke="black" stroke-width="2" points="2810.64,-505.12 2815.77,-503.78 2810.93,-501.63 2810.64,-505.12"/>
<text text-anchor="middle" x="2676.75" y="-495.67" font-family="Helvetica,Arial,sans-serif" font-size="14.00">2</text>
</g>
<!-- 29&#45;&gt;19 -->
<g id="edge2" class="edge">
<title>29&#45;&gt;19</title>
<path fill="none" stroke="black" stroke-width="2" d="M2647.46,-464.66C2677.91,-464.16 2708.66,-463.65 2738.17,-463.17"/>
<polygon fill="black" stroke="black" stroke-width="2" points="2738.31,-464.91 2743.28,-463.08 2738.26,-461.41 2738.31,-464.91"/>
</g>
<!-- 54 -->
<g id="node6" class="node">
<title>54</title>
<ellipse fill="lightcoral" stroke="black" cx="3457.19" cy="-381.87" rx="240.46" ry="18"/>
<text text-anchor="middle" x="3457.19" y="-378.17" font-family="Helvetica,Arial,sans-serif" font-size="14.00">openzeppelin.access.ownable.library.Ownable_owner.addr</text>
</g>
<!-- 59 -->
<g id="node7" class="node">
<title>59</title>
<ellipse fill="lightcoral" stroke="black" cx="2939.23" cy="-361.87" rx="240.46" ry="18"/>
<text text-anchor="middle" x="2939.23" y="-358.17" font-family="Helvetica,Arial,sans-serif" font-size="14.00">openzeppelin.access.ownable.library.Ownable_owner.read</text>
</g>
<!-- 59&#45;&gt;3 -->
<g id="edge4" class="edge">
<title>59&#45;&gt;3</title>
<path fill="none" stroke="black" stroke-width="2" d="M3085.84,-347.6C3116.89,-343.96 3149.44,-339.69 3179.71,-334.87 3247.25,-324.12 3323.3,-308.16 3378.52,-295.85"/>
<polygon fill="black" stroke="black" stroke-width="2" points="3378.97,-297.55 3383.46,-294.75 3378.2,-294.13 3378.97,-297.55"/>
</g>
<!-- 59&#45;&gt;54 -->
<g id="edge3" class="edge">
<title>59&#45;&gt;54</title>
<path fill="none" stroke="black" stroke-width="2" d="M3153.07,-370.12C3181.16,-371.21 3209.99,-372.33 3238.17,-373.42"/>
<polygon fill="black" stroke="black" stroke-width="2" points="3238.36,-375.18 3243.42,-373.62 3238.49,-371.68 3238.36,-375.18"/>
</g>
<!-- 72 -->
<g id="node8" class="node">
<title>72</title>
<ellipse fill="lightcoral" stroke="black" cx="2390.87" cy="-414.87" rx="241.26" ry="18"/>
<text text-anchor="middle" x="2390.87" y="-411.17" font-family="Helvetica,Arial,sans-serif" font-size="14.00">openzeppelin.access.ownable.library.Ownable_owner.write</text>
</g>
<!-- 72&#45;&gt;11 -->
<g id="edge6" class="edge">
<title>72&#45;&gt;11</title>
<path fill="none" stroke="black" stroke-width="2" d="M2607.32,-406.84C2623.85,-402.02 2639.88,-395.81 2654.75,-387.87 2681.76,-373.46 2671.81,-349.42 2698.75,-334.87 2712.93,-327.21 2728.26,-321.25 2744.08,-316.64"/>
<polygon fill="black" stroke="black" stroke-width="2" points="2744.67,-318.3 2749.01,-315.26 2743.72,-314.93 2744.67,-318.3"/>
</g>
<!-- 72&#45;&gt;54 -->
<g id="edge5" class="edge">
<title>72&#45;&gt;54</title>
<path fill="none" stroke="black" stroke-width="2" d="M2614.02,-407.98C2794.51,-402.39 3048.05,-394.52 3229.7,-388.89"/>
<polygon fill="black" stroke="black" stroke-width="2" points="3229.84,-390.64 3234.79,-388.73 3229.74,-387.14 3229.84,-390.64"/>
</g>
<!-- 84 -->
<g id="node9" class="node">
<title>84</title>
<ellipse fill="lightcoral" stroke="black" cx="1263.32" cy="-372.87" rx="228.56" ry="18"/>
<text text-anchor="middle" x="1263.32" y="-369.17" font-family="Helvetica,Arial,sans-serif" font-size="14.00">openzeppelin.access.ownable.library.Ownable.initializer</text>
</g>
<!-- 97 -->
<g id="node11" class="node">
<title>97</title>
<ellipse fill="lightcoral" stroke="black" cx="1815.72" cy="-392.87" rx="274.05" ry="18"/>
<text text-anchor="middle" x="1815.72" y="-389.17" font-family="Helvetica,Arial,sans-serif" font-size="14.00">openzeppelin.access.ownable.library.Ownable._transfer_ownership</text>
</g>
<!-- 84&#45;&gt;97 -->
<g id="edge7" class="edge">
<title>84&#45;&gt;97</title>
<path fill="none" stroke="black" stroke-width="2" d="M1471.23,-380.39C1503.49,-381.56 1537.1,-382.78 1570.11,-383.98"/>
<polygon fill="black" stroke="black" stroke-width="2" points="1570.34,-385.74 1575.4,-384.17 1570.47,-382.24 1570.34,-385.74"/>
</g>
<!-- 91 -->
<g id="node10" class="node">
<title>91</title>
<ellipse fill="lightcoral" stroke="black" cx="2390.87" cy="-360.87" rx="218.26" ry="18"/>
<text text-anchor="middle" x="2390.87" y="-357.17" font-family="Helvetica,Arial,sans-serif" font-size="14.00">openzeppelin.access.ownable.library.Ownable.owner</text>
</g>
<!-- 91&#45;&gt;59 -->
<g id="edge8" class="edge">
<title>91&#45;&gt;59</title>
<path fill="none" stroke="black" stroke-width="2" d="M2609.38,-361.27C2636.97,-361.32 2665.36,-361.37 2693.34,-361.42"/>
<polygon fill="black" stroke="black" stroke-width="2" points="2693.56,-363.17 2698.56,-361.43 2693.57,-359.67 2693.56,-363.17"/>
</g>
<!-- 97&#45;&gt;29 -->
<g id="edge11" class="edge">
<title>97&#45;&gt;29</title>
<path fill="none" stroke="black" stroke-width="2" d="M1914.35,-409.68C1975.35,-419.84 2055.61,-432.57 2127,-441.87 2160.17,-446.19 2195.77,-450.24 2229.73,-453.82"/>
<polygon fill="black" stroke="black" stroke-width="2" points="2229.57,-455.56 2234.72,-454.35 2229.93,-452.08 2229.57,-455.56"/>
</g>
<!-- 97&#45;&gt;72 -->
<g id="edge10" class="edge">
<title>97&#45;&gt;72</title>
<path fill="none" stroke="black" stroke-width="2" d="M2052.74,-401.93C2091.87,-403.43 2132.29,-404.98 2170.97,-406.47"/>
<polygon fill="black" stroke="black" stroke-width="2" points="2171.11,-408.22 2176.17,-406.67 2171.24,-404.73 2171.11,-408.22"/>
</g>
<!-- 97&#45;&gt;91 -->
<g id="edge9" class="edge">
<title>97&#45;&gt;91</title>
<path fill="none" stroke="black" stroke-width="2" d="M2025.26,-381.23C2083.83,-377.96 2147.1,-374.42 2204.24,-371.23"/>
<polygon fill="black" stroke="black" stroke-width="2" points="2204.5,-372.97 2209.4,-370.95 2204.31,-369.48 2204.5,-372.97"/>
</g>
<!-- 118 -->
<g id="node12" class="node">
<title>118</title>
<ellipse fill="lightcoral" stroke="black" cx="2939.23" cy="-253.87" rx="207.16" ry="18"/>
<text text-anchor="middle" x="2939.23" y="-250.17" font-family="Helvetica,Arial,sans-serif" font-size="14.00">src.farm.library.carbonable_project_address_.addr</text>
</g>
<!-- 123 -->
<g id="node13" class="node">
<title>123</title>
<ellipse fill="lightcoral" stroke="black" cx="2390.87" cy="-198.87" rx="207.16" ry="18"/>
<text text-anchor="middle" x="2390.87" y="-195.17" font-family="Helvetica,Arial,sans-serif" font-size="14.00">src.farm.library.carbonable_project_address_.read</text>
</g>
<!-- 123&#45;&gt;3 -->
<g id="edge13" class="edge">
<title>123&#45;&gt;3</title>
<path fill="none" stroke="black" stroke-width="2" d="M2598.16,-197.94C2757.45,-199.21 2983.11,-205.36 3179.71,-226.87 3246.71,-234.2 3321.87,-248.46 3376.89,-260.04"/>
<polygon fill="black" stroke="black" stroke-width="2" points="3376.56,-261.76 3381.82,-261.08 3377.29,-258.34 3376.56,-261.76"/>
</g>
<!-- 123&#45;&gt;118 -->
<g id="edge12" class="edge">
<title>123&#45;&gt;118</title>
<path fill="none" stroke="black" stroke-width="2" d="M2526.93,-212.47C2609.18,-220.75 2714.1,-231.31 2797.38,-239.69"/>
<polygon fill="black" stroke="black" stroke-width="2" points="2797.69,-241.48 2802.84,-240.24 2798.04,-238 2797.69,-241.48"/>
</g>
<!-- 136 -->
<g id="node14" class="node">
<title>136</title>
<ellipse fill="lightcoral" stroke="black" cx="2390.87" cy="-306.87" rx="207.96" ry="18"/>
<text text-anchor="middle" x="2390.87" y="-303.17" font-family="Helvetica,Arial,sans-serif" font-size="14.00">src.farm.library.carbonable_project_address_.write</text>
</g>
<!-- 136&#45;&gt;11 -->
<g id="edge15" class="edge">
<title>136&#45;&gt;11</title>
<path fill="none" stroke="black" stroke-width="2" d="M2598.82,-307.25C2640.47,-307.33 2684.3,-307.41 2726.12,-307.48"/>
<polygon fill="black" stroke="black" stroke-width="2" points="2726.21,-309.23 2731.21,-307.49 2726.21,-305.73 2726.21,-309.23"/>
</g>
<!-- 136&#45;&gt;118 -->
<g id="edge14" class="edge">
<title>136&#45;&gt;118</title>
<path fill="none" stroke="black" stroke-width="2" d="M2530.1,-293.46C2610.99,-285.61 2712.96,-275.72 2794.75,-267.79"/>
<polygon fill="black" stroke="black" stroke-width="2" points="2795.3,-269.49 2800.1,-267.27 2794.96,-266.01 2795.3,-269.49"/>
</g>
<!-- 148 -->
<g id="node15" class="node">
<title>148</title>
<ellipse fill="lightcoral" stroke="black" cx="2939.23" cy="-161.87" rx="185.77" ry="18"/>
<text text-anchor="middle" x="2939.23" y="-158.17" font-family="Helvetica,Arial,sans-serif" font-size="14.00">src.farm.library.reward_token_address_.addr</text>
</g>
<!-- 153 -->
<g id="node16" class="node">
<title>153</title>
<ellipse fill="lightcoral" stroke="black" cx="2390.87" cy="-115.87" rx="185.77" ry="18"/>
<text text-anchor="middle" x="2390.87" y="-112.17" font-family="Helvetica,Arial,sans-serif" font-size="14.00">src.farm.library.reward_token_address_.read</text>
</g>
<!-- 153&#45;&gt;3 -->
<g id="edge17" class="edge">
<title>153&#45;&gt;3</title>
<path fill="none" stroke="black" stroke-width="2" d="M2512.28,-102.23C2668.82,-88.22 2949.42,-75.89 3179.71,-134.87 3276.77,-159.73 3378.26,-223.59 3426.85,-256.91"/>
<polygon fill="black" stroke="black" stroke-width="2" points="3425.99,-258.45 3431.1,-259.85 3427.98,-255.57 3425.99,-258.45"/>
</g>
<!-- 153&#45;&gt;148 -->
<g id="edge16" class="edge">
<title>153&#45;&gt;148</title>
<path fill="none" stroke="black" stroke-width="2" d="M2531.86,-127.66C2611.84,-134.39 2711.97,-142.82 2792.83,-149.63"/>
<polygon fill="black" stroke="black" stroke-width="2" points="2793,-151.4 2798.13,-150.07 2793.29,-147.91 2793,-151.4"/>
</g>
<!-- 166 -->
<g id="node17" class="node">
<title>166</title>
<ellipse fill="lightcoral" stroke="black" cx="2390.87" cy="-252.87" rx="186.57" ry="18"/>
<text text-anchor="middle" x="2390.87" y="-249.17" font-family="Helvetica,Arial,sans-serif" font-size="14.00">src.farm.library.reward_token_address_.write</text>
</g>
<!-- 166&#45;&gt;11 -->
<g id="edge19" class="edge">
<title>166&#45;&gt;11</title>
<path fill="none" stroke="black" stroke-width="2" d="M2520.66,-265.83C2603.87,-274.21 2712.16,-285.11 2797.6,-293.71"/>
<polygon fill="black" stroke="black" stroke-width="2" points="2797.53,-295.47 2802.68,-294.23 2797.88,-291.98 2797.53,-295.47"/>
</g>
<!-- 166&#45;&gt;148 -->
<g id="edge18" class="edge">
<title>166&#45;&gt;148</title>
<path fill="none" stroke="black" stroke-width="2" d="M2534.51,-241.36C2573.62,-237.35 2615.93,-232.22 2654.75,-225.87 2728.34,-213.83 2811.44,-194.36 2868.54,-180.05"/>
<polygon fill="black" stroke="black" stroke-width="2" points="2869.22,-181.69 2873.64,-178.77 2868.37,-178.29 2869.22,-181.69"/>
</g>
<!-- 178 -->
<g id="node18" class="node">
<title>178</title>
<ellipse fill="lightcoral" stroke="black" cx="2939.23" cy="-567.87" rx="202.26" ry="18"/>
<text text-anchor="middle" x="2939.23" y="-564.17" font-family="Helvetica,Arial,sans-serif" font-size="14.00">src.farm.library.carbonable_token_address_.addr</text>
</g>
<!-- 183 -->
<g id="node19" class="node">
<title>183</title>
<ellipse fill="lightcoral" stroke="black" cx="2390.87" cy="-576.87" rx="202.26" ry="18"/>
<text text-anchor="middle" x="2390.87" y="-573.17" font-family="Helvetica,Arial,sans-serif" font-size="14.00">src.farm.library.carbonable_token_address_.read</text>
</g>
<!-- 183&#45;&gt;3 -->
<g id="edge21" class="edge">
<title>183&#45;&gt;3</title>
<path fill="none" stroke="black" stroke-width="2" d="M2433.27,-594.65C2561.87,-646.79 2959.03,-784.14 3179.71,-594.87 3261.63,-524.61 3146.66,-436.98 3216.71,-354.87 3243.74,-323.18 3283.87,-304.42 3323.59,-293.35"/>
<polygon fill="black" stroke="black" stroke-width="2" points="3324.06,-295.03 3328.43,-292.04 3323.14,-291.65 3324.06,-295.03"/>
</g>
<!-- 183&#45;&gt;178 -->
<g id="edge20" class="edge">
<title>183&#45;&gt;178</title>
<path fill="none" stroke="black" stroke-width="2" d="M2589.89,-573.61C2637.18,-572.83 2687.73,-572 2735.25,-571.21"/>
<polygon fill="black" stroke="black" stroke-width="2" points="2735.46,-572.96 2740.43,-571.13 2735.4,-569.46 2735.46,-572.96"/>
</g>
<!-- 196 -->
<g id="node20" class="node">
<title>196</title>
<ellipse fill="lightcoral" stroke="black" cx="2390.87" cy="-522.87" rx="203.36" ry="18"/>
<text text-anchor="middle" x="2390.87" y="-519.17" font-family="Helvetica,Arial,sans-serif" font-size="14.00">src.farm.library.carbonable_token_address_.write</text>
</g>
<!-- 196&#45;&gt;11 -->
<g id="edge23" class="edge">
<title>196&#45;&gt;11</title>
<path fill="none" stroke="black" stroke-width="2" d="M2498.1,-538.19C2550.86,-539.83 2612.23,-531.92 2654.75,-495.87 2683.04,-471.89 2670.58,-358.99 2698.75,-334.87 2708.71,-326.34 2719.82,-319.5 2731.65,-314.05"/>
<polygon fill="black" stroke="black" stroke-width="2" points="2732.53,-315.57 2736.4,-311.95 2731.12,-312.37 2732.53,-315.57"/>
</g>
<!-- 196&#45;&gt;178 -->
<g id="edge22" class="edge">
<title>196&#45;&gt;178</title>
<path fill="none" stroke="black" stroke-width="2" d="M2540.45,-535.11C2616.35,-541.36 2708.6,-548.96 2785.14,-555.26"/>
<polygon fill="black" stroke="black" stroke-width="2" points="2785.03,-557.01 2790.16,-555.67 2785.32,-553.52 2785.03,-557.01"/>
</g>
<!-- 208 -->
<g id="node21" class="node">
<title>208</title>
<ellipse fill="lightcoral" stroke="black" cx="769.95" cy="-335.87" rx="191.17" ry="18"/>
<text text-anchor="middle" x="769.95" y="-332.17" font-family="Helvetica,Arial,sans-serif" font-size="14.00">src.farm.library.CarbonableFarmer.constructor</text>
</g>
<!-- 208&#45;&gt;84 -->
<g id="edge24" class="edge">
<title>208&#45;&gt;84</title>
<path fill="none" stroke="black" stroke-width="2" d="M919.71,-347.07C974.14,-351.17 1036.12,-355.84 1092.27,-360.07"/>
<polygon fill="black" stroke="black" stroke-width="2" points="1092.22,-361.82 1097.33,-360.45 1092.48,-358.33 1092.22,-361.82"/>
</g>
<!-- 208&#45;&gt;136 -->
<g id="edge25" class="edge">
<title>208&#45;&gt;136</title>
<path fill="none" stroke="black" stroke-width="2" d="M957.84,-332.52C1262.54,-327.06 1864.15,-316.29 2181.93,-310.59"/>
<polygon fill="black" stroke="black" stroke-width="2" points="2182.09,-312.34 2187.06,-310.5 2182.03,-308.84 2182.09,-312.34"/>
</g>
<!-- 208&#45;&gt;166 -->
<g id="edge27" class="edge">
<title>208&#45;&gt;166</title>
<path fill="none" stroke="black" stroke-width="2" d="M919.37,-324.64C953.16,-322.25 988.9,-319.85 1022.19,-317.87 1449.34,-292.42 1952.02,-270.62 2212.81,-259.92"/>
<polygon fill="black" stroke="black" stroke-width="2" points="2213.23,-261.66 2218.16,-259.71 2213.09,-258.16 2213.23,-261.66"/>
</g>
<!-- 208&#45;&gt;196 -->
<g id="edge26" class="edge">
<title>208&#45;&gt;196</title>
<path fill="none" stroke="black" stroke-width="2" d="M827.76,-353.11C878.33,-367.79 954.53,-388.29 1022.19,-399.87 1438.68,-471.18 1934.06,-502.7 2199.44,-515.35"/>
<polygon fill="black" stroke="black" stroke-width="2" points="2199.42,-517.11 2204.5,-515.6 2199.59,-513.61 2199.42,-517.11"/>
</g>
<!-- 224 -->
<g id="node22" class="node">
<title>224</title>
<ellipse fill="lightcoral" stroke="black" cx="1815.72" cy="-200.87" rx="258.85" ry="18"/>
<text text-anchor="middle" x="1815.72" y="-197.17" font-family="Helvetica,Arial,sans-serif" font-size="14.00">src.farm.library.CarbonableFarmer.carbonable_project_address</text>
</g>
<!-- 224&#45;&gt;123 -->
<g id="edge28" class="edge">
<title>224&#45;&gt;123</title>
<path fill="none" stroke="black" stroke-width="2" d="M2074.38,-199.97C2109.09,-199.85 2144.38,-199.73 2178.18,-199.61"/>
<polygon fill="black" stroke="black" stroke-width="2" points="2178.6,-201.36 2183.59,-199.59 2178.58,-197.86 2178.6,-201.36"/>
</g>
<!-- 230 -->
<g id="node23" class="node">
<title>230</title>
<ellipse fill="lightcoral" stroke="black" cx="1815.72" cy="-106.87" rx="237.46" ry="18"/>
<text text-anchor="middle" x="1815.72" y="-103.17" font-family="Helvetica,Arial,sans-serif" font-size="14.00">src.farm.library.CarbonableFarmer.reward_token_address</text>
</g>
<!-- 230&#45;&gt;153 -->
<g id="edge29" class="edge">
<title>230&#45;&gt;153</title>
<path fill="none" stroke="black" stroke-width="2" d="M2048.19,-110.5C2099.41,-111.31 2153.06,-112.15 2202.27,-112.92"/>
<polygon fill="black" stroke="black" stroke-width="2" points="2202.3,-114.67 2207.33,-113 2202.35,-111.18 2202.3,-114.67"/>
</g>
<!-- 236 -->
<g id="node24" class="node">
<title>236</title>
<ellipse fill="lightcoral" stroke="black" cx="1815.72" cy="-576.87" rx="253.46" ry="18"/>
<text text-anchor="middle" x="1815.72" y="-573.17" font-family="Helvetica,Arial,sans-serif" font-size="14.00">src.farm.library.CarbonableFarmer.carbonable_token_address</text>
</g>
<!-- 236&#45;&gt;183 -->
<g id="edge30" class="edge">
<title>236&#45;&gt;183</title>
<path fill="none" stroke="black" stroke-width="2" d="M2069.37,-576.87C2107.41,-576.87 2146.26,-576.87 2183.19,-576.87"/>
<polygon fill="black" stroke="black" stroke-width="2" points="2183.62,-578.62 2188.62,-576.87 2183.62,-575.12 2183.62,-578.62"/>
</g>
<!-- 242 -->
<g id="node25" class="node">
<title>242</title>
<ellipse fill="violet" stroke="black" cx="413.76" cy="-335.87" rx="103.89" ry="26.74"/>
<text text-anchor="start" x="348.26" y="-339.67" font-family="Helvetica,Arial,sans-serif" font-size="14.00">__main__.constructor</text>
<text text-anchor="middle" x="413.76" y="-324.67" font-family="Helvetica,Arial,sans-serif" font-size="14.00">[&#39;constructor&#39;]</text>
</g>
<!-- 242&#45;&gt;208 -->
<g id="edge31" class="edge">
<title>242&#45;&gt;208</title>
<path fill="none" stroke="black" stroke-width="2" d="M518.16,-335.87C535.7,-335.87 554.42,-335.87 573.43,-335.87"/>
<polygon fill="black" stroke="black" stroke-width="2" points="573.79,-337.62 578.79,-335.87 573.79,-334.12 573.79,-337.62"/>
</g>
<!-- 252 -->
<g id="node26" class="node">
<title>252</title>
<polygon fill="violet" stroke="black" points="268.73,-323.79 268.73,-347.95 191.22,-365.03 81.6,-365.03 4.09,-347.95 4.09,-323.79 81.6,-306.71 191.22,-306.71 268.73,-323.79"/>
<polygon fill="none" stroke="black" points="272.73,-320.57 272.73,-351.17 191.65,-369.04 81.17,-369.04 0.09,-351.17 0.09,-320.57 81.17,-302.7 191.65,-302.7 272.73,-320.57"/>
<text text-anchor="start" x="44.16" y="-339.67" font-family="Helvetica,Arial,sans-serif" font-size="14.00">__wrappers__.constructor</text>
<text text-anchor="middle" x="136.41" y="-324.67" font-family="Helvetica,Arial,sans-serif" font-size="14.00">[&#39;constructor&#39;]</text>
</g>
<!-- 252&#45;&gt;242 -->
<g id="edge32" class="edge">
<title>252&#45;&gt;242</title>
<path fill="none" stroke="black" stroke-width="2" d="M273.07,-335.87C283.68,-335.87 294.32,-335.87 304.71,-335.87"/>
<polygon fill="black" stroke="black" stroke-width="2" points="304.8,-337.62 309.8,-335.87 304.8,-334.12 304.8,-337.62"/>
</g>
<!-- 273 -->
<g id="node27" class="node">
<title>273</title>
<ellipse fill="orange" stroke="black" cx="1263.32" cy="-206.87" rx="177.47" ry="26.74"/>
<text text-anchor="start" x="1145.82" y="-210.67" font-family="Helvetica,Arial,sans-serif" font-size="14.00">__main__.carbonable_project_address</text>
<text text-anchor="middle" x="1263.32" y="-195.67" font-family="Helvetica,Arial,sans-serif" font-size="14.00">[&#39;view&#39;]</text>
</g>
<!-- 273&#45;&gt;224 -->
<g id="edge33" class="edge">
<title>273&#45;&gt;224</title>
<path fill="none" stroke="black" stroke-width="2" d="M1440.36,-204.95C1476.86,-204.55 1516.04,-204.13 1554.82,-203.7"/>
<polygon fill="black" stroke="black" stroke-width="2" points="1555.06,-205.45 1560.04,-203.65 1555.02,-201.95 1555.06,-205.45"/>
</g>
<!-- 279 -->
<g id="node28" class="node">
<title>279</title>
<ellipse fill="none" stroke="black" cx="1263.32" cy="-143.87" rx="241.26" ry="18"/>
<text text-anchor="middle" x="1263.32" y="-140.17" font-family="Helvetica,Arial,sans-serif" font-size="14.00">__wrappers__.carbonable_project_address_encode_return</text>
</g>
<!-- 288 -->
<g id="node29" class="node">
<title>288</title>
<polygon fill="orange" stroke="black" points="981.43,-160.79 981.43,-184.95 857.54,-202.03 682.35,-202.03 558.47,-184.95 558.47,-160.79 682.35,-143.71 857.54,-143.71 981.43,-160.79"/>
<polygon fill="none" stroke="black" points="985.43,-157.3 985.43,-188.44 857.82,-206.04 682.08,-206.04 554.46,-188.44 554.46,-157.3 682.08,-139.7 857.82,-139.7 985.43,-157.3"/>
<text text-anchor="start" x="618.01" y="-176.67" font-family="Helvetica,Arial,sans-serif" font-size="14.00">__wrappers__.carbonable_project_address</text>
<text text-anchor="middle" x="769.95" y="-161.67" font-family="Helvetica,Arial,sans-serif" font-size="14.00">[&#39;view&#39;]</text>
</g>
<!-- 288&#45;&gt;273 -->
<g id="edge34" class="edge">
<title>288&#45;&gt;273</title>
<path fill="none" stroke="black" stroke-width="2" d="M985.4,-187.71C1022.59,-190.28 1060.76,-192.92 1096.41,-195.39"/>
<polygon fill="black" stroke="black" stroke-width="2" points="1096.54,-197.15 1101.65,-195.75 1096.78,-193.66 1096.54,-197.15"/>
</g>
<!-- 288&#45;&gt;279 -->
<g id="edge35" class="edge">
<title>288&#45;&gt;279</title>
<path fill="none" stroke="black" stroke-width="2" d="M985.4,-160.21C1013.01,-158.58 1041.16,-156.92 1068.42,-155.31"/>
<polygon fill="black" stroke="black" stroke-width="2" points="1068.61,-157.06 1073.5,-155.01 1068.4,-153.56 1068.61,-157.06"/>
</g>
<!-- 303 -->
<g id="node30" class="node">
<title>303</title>
<ellipse fill="orange" stroke="black" cx="1263.32" cy="-26.87" rx="154.3" ry="26.74"/>
<text text-anchor="start" x="1162.32" y="-30.67" font-family="Helvetica,Arial,sans-serif" font-size="14.00">__main__.reward_token_address</text>
<text text-anchor="middle" x="1263.32" y="-15.67" font-family="Helvetica,Arial,sans-serif" font-size="14.00">[&#39;view&#39;]</text>
</g>
<!-- 303&#45;&gt;230 -->
<g id="edge36" class="edge">
<title>303&#45;&gt;230</title>
<path fill="none" stroke="black" stroke-width="2" d="M1382.39,-44.03C1476.26,-57.68 1606.82,-76.65 1699.84,-90.17"/>
<polygon fill="black" stroke="black" stroke-width="2" points="1699.6,-91.91 1704.8,-90.89 1700.1,-88.44 1699.6,-91.91"/>
</g>
<!-- 309 -->
<g id="node31" class="node">
<title>309</title>
<ellipse fill="none" stroke="black" cx="1263.32" cy="-89.87" rx="219.86" ry="18"/>
<text text-anchor="middle" x="1263.32" y="-86.17" font-family="Helvetica,Arial,sans-serif" font-size="14.00">__wrappers__.reward_token_address_encode_return</text>
</g>
<!-- 318 -->
<g id="node32" class="node">
<title>318</title>
<polygon fill="orange" stroke="black" points="955.92,-61.79 955.92,-85.95 846.98,-103.03 692.92,-103.03 583.98,-85.95 583.98,-61.79 692.92,-44.71 846.98,-44.71 955.92,-61.79"/>
<polygon fill="none" stroke="black" points="959.92,-58.36 959.92,-89.38 847.29,-107.04 692.61,-107.04 579.98,-89.38 579.98,-58.36 692.61,-40.7 847.29,-40.7 959.92,-58.36"/>
<text text-anchor="start" x="637.14" y="-77.67" font-family="Helvetica,Arial,sans-serif" font-size="14.00">__wrappers__.reward_token_address</text>
<text text-anchor="middle" x="769.95" y="-62.67" font-family="Helvetica,Arial,sans-serif" font-size="14.00">[&#39;view&#39;]</text>
</g>
<!-- 318&#45;&gt;303 -->
<g id="edge37" class="edge">
<title>318&#45;&gt;303</title>
<path fill="none" stroke="black" stroke-width="2" d="M950.08,-56.74C1006.94,-51.3 1068.95,-45.37 1122.61,-40.23"/>
<polygon fill="black" stroke="black" stroke-width="2" points="1122.97,-41.96 1127.78,-39.74 1122.63,-38.47 1122.97,-41.96"/>
</g>
<!-- 318&#45;&gt;309 -->
<g id="edge38" class="edge">
<title>318&#45;&gt;309</title>
<path fill="none" stroke="black" stroke-width="2" d="M960.22,-80.03C990.76,-81.03 1022.53,-82.06 1053.5,-83.07"/>
<polygon fill="black" stroke="black" stroke-width="2" points="1053.81,-84.83 1058.87,-83.25 1053.93,-81.33 1053.81,-84.83"/>
</g>
<!-- 333 -->
<g id="node33" class="node">
<title>333</title>
<ellipse fill="orange" stroke="black" cx="1263.32" cy="-576.87" rx="171.65" ry="26.74"/>
<text text-anchor="start" x="1149.82" y="-580.67" font-family="Helvetica,Arial,sans-serif" font-size="14.00">__main__.carbonable_token_address</text>
<text text-anchor="middle" x="1263.32" y="-565.67" font-family="Helvetica,Arial,sans-serif" font-size="14.00">[&#39;view&#39;]</text>
</g>
<!-- 333&#45;&gt;236 -->
<g id="edge39" class="edge">
<title>333&#45;&gt;236</title>
<path fill="none" stroke="black" stroke-width="2" d="M1435.45,-576.87C1474.04,-576.87 1515.83,-576.87 1557.09,-576.87"/>
<polygon fill="black" stroke="black" stroke-width="2" points="1557.12,-578.62 1562.12,-576.87 1557.12,-575.12 1557.12,-578.62"/>
</g>
<!-- 339 -->
<g id="node34" class="node">
<title>339</title>
<ellipse fill="none" stroke="black" cx="1263.32" cy="-639.87" rx="235.86" ry="18"/>
<text text-anchor="middle" x="1263.32" y="-636.17" font-family="Helvetica,Arial,sans-serif" font-size="14.00">__wrappers__.carbonable_token_address_encode_return</text>
</g>
<!-- 348 -->
<g id="node35" class="node">
<title>348</title>
<polygon fill="orange" stroke="black" points="975.72,-611.79 975.72,-635.95 855.18,-653.03 684.72,-653.03 564.18,-635.95 564.18,-611.79 684.72,-594.71 855.18,-594.71 975.72,-611.79"/>
<polygon fill="none" stroke="black" points="979.72,-608.31 979.72,-639.43 855.46,-657.04 684.43,-657.04 560.18,-639.43 560.18,-608.31 684.43,-590.7 855.46,-590.7 979.72,-608.31"/>
<text text-anchor="start" x="622.07" y="-627.67" font-family="Helvetica,Arial,sans-serif" font-size="14.00">__wrappers__.carbonable_token_address</text>
<text text-anchor="middle" x="769.95" y="-612.67" font-family="Helvetica,Arial,sans-serif" font-size="14.00">[&#39;view&#39;]</text>
</g>
<!-- 348&#45;&gt;333 -->
<g id="edge40" class="edge">
<title>348&#45;&gt;333</title>
<path fill="none" stroke="black" stroke-width="2" d="M961.28,-605.67C1010.89,-600.92 1063.67,-595.87 1110.96,-591.35"/>
<polygon fill="black" stroke="black" stroke-width="2" points="1111.3,-593.07 1116.11,-590.85 1110.97,-589.59 1111.3,-593.07"/>
</g>
<!-- 348&#45;&gt;339 -->
<g id="edge41" class="edge">
<title>348&#45;&gt;339</title>
<path fill="none" stroke="black" stroke-width="2" d="M980.05,-630.68C1000.15,-631.33 1020.59,-632 1040.81,-632.66"/>
<polygon fill="black" stroke="black" stroke-width="2" points="1040.9,-634.41 1045.95,-632.82 1041.01,-630.91 1040.9,-634.41"/>
</g>
</g>
</svg>
