<?xml version="1.0" encoding="UTF-8" standalone="no"?>
<!DOCTYPE svg PUBLIC "-//W3C//DTD SVG 1.1//EN"
 "http://www.w3.org/Graphics/SVG/1.1/DTD/svg11.dtd">
<!-- Generated by graphviz version 2.43.0 (0)
 -->
<!-- Title: CarbonableProxy Pages: 1 -->
<svg width="2542pt" height="274pt"
 viewBox="0.00 0.00 2541.64 274.00" xmlns="http://www.w3.org/2000/svg" xmlns:xlink="http://www.w3.org/1999/xlink">
<g id="graph0" class="graph" transform="scale(1 1) rotate(0) translate(4 270)">
<title>CarbonableProxy</title>
<polygon fill="white" stroke="transparent" points="-4,4 -4,-270 2537.64,-270 2537.64,4 -4,4"/>
<!-- 0 -->
<g id="node1" class="node">
<title>0</title>
<ellipse fill="lightcoral" stroke="black" cx="2271.71" cy="-248" rx="148.37" ry="18"/>
<text text-anchor="middle" x="2271.71" y="-244.3" font-family="Helvetica,Arial,sans-serif" font-size="14.00">starkware.cairo.common.alloc.alloc</text>
</g>
<!-- 3 -->
<g id="node2" class="node">
<title>3</title>
<ellipse fill="lightcoral" stroke="black" cx="1703.2" cy="-160" rx="194.97" ry="18"/>
<text text-anchor="middle" x="1703.2" y="-156.3" font-family="Helvetica,Arial,sans-serif" font-size="14.00">starkware.cairo.common.math.assert_not_zero</text>
</g>
<!-- 8 -->
<g id="node3" class="node">
<title>8</title>
<ellipse fill="lightcoral" stroke="black" cx="1143" cy="-20" rx="196.87" ry="18"/>
<text text-anchor="middle" x="1143" y="-16.3" font-family="Helvetica,Arial,sans-serif" font-size="14.00">starkware.starknet.common.syscalls.library_call</text>
</g>
<!-- 20 -->
<g id="node4" class="node">
<title>20</title>
<ellipse fill="lightcoral" stroke="black" cx="2271.71" cy="-18" rx="206.86" ry="18"/>
<text text-anchor="middle" x="2271.71" y="-14.3" font-family="Helvetica,Arial,sans-serif" font-size="14.00">starkware.starknet.common.syscalls.storage_read</text>
</g>
<!-- 28 -->
<g id="node5" class="node">
<title>28</title>
<ellipse fill="lightcoral" stroke="black" cx="2271.71" cy="-126" rx="207.96" ry="18"/>
<text text-anchor="middle" x="2271.71" y="-122.3" font-family="Helvetica,Arial,sans-serif" font-size="14.00">starkware.starknet.common.syscalls.storage_write</text>
</g>
<!-- 36 -->
<g id="node6" class="node">
<title>36</title>
<ellipse fill="lightcoral" stroke="black" cx="2271.71" cy="-194" rx="198.47" ry="18"/>
<text text-anchor="middle" x="2271.71" y="-190.3" font-family="Helvetica,Arial,sans-serif" font-size="14.00">starkware.starknet.common.syscalls.emit_event</text>
</g>
<!-- 46 -->
<g id="node7" class="node">
<title>46</title>
<ellipse fill="lightcoral" stroke="black" cx="1703.2" cy="-214" rx="188.47" ry="18"/>
<text text-anchor="middle" x="1703.2" y="-210.3" font-family="Helvetica,Arial,sans-serif" font-size="14.00">openzeppelin.upgrades.library.Upgraded.emit</text>
</g>
<!-- 46&#45;&gt;0 -->
<g id="edge1" class="edge">
<title>46&#45;&gt;0</title>
<path fill="none" stroke="black" stroke-width="2" d="M1863.14,-223.54C1948.01,-228.63 2051.45,-234.84 2132.89,-239.73"/>
<polygon fill="black" stroke="black" stroke-width="2" points="2133.13,-241.5 2138.22,-240.05 2133.34,-238 2133.13,-241.5"/>
<text text-anchor="middle" x="1987.78" y="-234.8" font-family="Helvetica,Arial,sans-serif" font-size="14.00">2</text>
</g>
<!-- 46&#45;&gt;36 -->
<g id="edge2" class="edge">
<title>46&#45;&gt;36</title>
<path fill="none" stroke="black" stroke-width="2" d="M1880.34,-207.78C1944.13,-205.53 2016.41,-202.98 2081.29,-200.69"/>
<polygon fill="black" stroke="black" stroke-width="2" points="2081.41,-202.43 2086.35,-200.51 2081.29,-198.94 2081.41,-202.43"/>
</g>
<!-- 70 -->
<g id="node8" class="node">
<title>70</title>
<ellipse fill="lightcoral" stroke="black" cx="2271.71" cy="-72" rx="261.85" ry="18"/>
<text text-anchor="middle" x="2271.71" y="-68.3" font-family="Helvetica,Arial,sans-serif" font-size="14.00">openzeppelin.upgrades.library.Proxy_implementation_hash.addr</text>
</g>
<!-- 75 -->
<g id="node9" class="node">
<title>75</title>
<ellipse fill="lightcoral" stroke="black" cx="1703.2" cy="-52" rx="261.85" ry="18"/>
<text text-anchor="middle" x="1703.2" y="-48.3" font-family="Helvetica,Arial,sans-serif" font-size="14.00">openzeppelin.upgrades.library.Proxy_implementation_hash.read</text>
</g>
<!-- 75&#45;&gt;20 -->
<g id="edge4" class="edge">
<title>75&#45;&gt;20</title>
<path fill="none" stroke="black" stroke-width="2" d="M1901.15,-40.18C1964.53,-36.38 2034.29,-32.19 2095.97,-28.49"/>
<polygon fill="black" stroke="black" stroke-width="2" points="2096.26,-30.22 2101.15,-28.18 2096.05,-26.73 2096.26,-30.22"/>
</g>
<!-- 75&#45;&gt;70 -->
<g id="edge3" class="edge">
<title>75&#45;&gt;70</title>
<path fill="none" stroke="black" stroke-width="2" d="M1936.67,-60.21C1968.55,-61.33 2001.32,-62.49 2033.3,-63.62"/>
<polygon fill="black" stroke="black" stroke-width="2" points="2033.36,-65.37 2038.42,-63.8 2033.49,-61.87 2033.36,-65.37"/>
</g>
<!-- 88 -->
<g id="node10" class="node">
<title>88</title>
<ellipse fill="lightcoral" stroke="black" cx="1703.2" cy="-106" rx="262.65" ry="18"/>
<text text-anchor="middle" x="1703.2" y="-102.3" font-family="Helvetica,Arial,sans-serif" font-size="14.00">openzeppelin.upgrades.library.Proxy_implementation_hash.write</text>
</g>
<!-- 88&#45;&gt;28 -->
<g id="edge6" class="edge">
<title>88&#45;&gt;28</title>
<path fill="none" stroke="black" stroke-width="2" d="M1937.08,-114.22C1982.48,-115.82 2029.66,-117.49 2073.76,-119.05"/>
<polygon fill="black" stroke="black" stroke-width="2" points="2073.78,-120.8 2078.84,-119.23 2073.91,-117.3 2073.78,-120.8"/>
</g>
<!-- 88&#45;&gt;70 -->
<g id="edge5" class="edge">
<title>88&#45;&gt;70</title>
<path fill="none" stroke="black" stroke-width="2" d="M1901.55,-94.16C1955.53,-90.92 2014.1,-87.4 2068.36,-84.14"/>
<polygon fill="black" stroke="black" stroke-width="2" points="2068.71,-85.88 2073.6,-83.83 2068.5,-82.38 2068.71,-85.88"/>
</g>
<!-- 100 -->
<g id="node11" class="node">
<title>100</title>
<ellipse fill="lightcoral" stroke="black" cx="1143" cy="-74" rx="256.15" ry="18"/>
<text text-anchor="middle" x="1143" y="-70.3" font-family="Helvetica,Arial,sans-serif" font-size="14.00">openzeppelin.upgrades.library.Proxy.get_implementation_hash</text>
</g>
<!-- 100&#45;&gt;75 -->
<g id="edge7" class="edge">
<title>100&#45;&gt;75</title>
<path fill="none" stroke="black" stroke-width="2" d="M1366.62,-65.23C1400.8,-63.88 1436.15,-62.49 1470.52,-61.13"/>
<polygon fill="black" stroke="black" stroke-width="2" points="1470.65,-62.88 1475.58,-60.93 1470.51,-59.38 1470.65,-62.88"/>
</g>
<!-- 106 -->
<g id="node12" class="node">
<title>106</title>
<ellipse fill="lightcoral" stroke="black" cx="1143" cy="-150" rx="260.75" ry="18"/>
<text text-anchor="middle" x="1143" y="-146.3" font-family="Helvetica,Arial,sans-serif" font-size="14.00">openzeppelin.upgrades.library.Proxy._set_implementation_hash</text>
</g>
<!-- 106&#45;&gt;3 -->
<g id="edge8" class="edge">
<title>106&#45;&gt;3</title>
<path fill="none" stroke="black" stroke-width="2" d="M1395.34,-154.5C1432.58,-155.17 1470.48,-155.85 1506.36,-156.49"/>
<polygon fill="black" stroke="black" stroke-width="2" points="1506.61,-158.25 1511.64,-156.59 1506.67,-154.75 1506.61,-158.25"/>
</g>
<!-- 106&#45;&gt;46 -->
<g id="edge10" class="edge">
<title>106&#45;&gt;46</title>
<path fill="none" stroke="black" stroke-width="2" d="M1266.6,-165.89C1320.02,-172.65 1383.39,-180.48 1440.63,-187 1481.43,-191.65 1525.86,-196.37 1566.33,-200.53"/>
<polygon fill="black" stroke="black" stroke-width="2" points="1566.6,-202.32 1571.76,-201.09 1566.96,-198.83 1566.6,-202.32"/>
</g>
<!-- 106&#45;&gt;88 -->
<g id="edge9" class="edge">
<title>106&#45;&gt;88</title>
<path fill="none" stroke="black" stroke-width="2" d="M1315.65,-136.47C1382.01,-131.24 1457.94,-125.25 1524.83,-119.98"/>
<polygon fill="black" stroke="black" stroke-width="2" points="1525.19,-121.71 1530.04,-119.57 1524.91,-118.22 1525.19,-121.71"/>
</g>
<!-- 124 -->
<g id="node13" class="node">
<title>124</title>
<ellipse fill="violet" stroke="black" cx="621.22" cy="-142" rx="221.15" ry="26.74"/>
<text text-anchor="start" x="472.72" y="-145.8" font-family="Helvetica,Arial,sans-serif" font-size="14.00">openzeppelin.upgrades.presets.Proxy.constructor</text>
<text text-anchor="middle" x="621.22" y="-130.8" font-family="Helvetica,Arial,sans-serif" font-size="14.00">[&#39;constructor&#39;]</text>
</g>
<!-- 124&#45;&gt;8 -->
<g id="edge12" class="edge">
<title>124&#45;&gt;8</title>
<path fill="none" stroke="black" stroke-width="2" d="M715.07,-117.57C755.91,-105.43 803.92,-89.22 845.37,-70 862.94,-61.86 864.06,-53.27 882.37,-47 906.69,-38.67 932.98,-32.71 959.17,-28.47"/>
<polygon fill="black" stroke="black" stroke-width="2" points="959.74,-30.16 964.4,-27.65 959.19,-26.7 959.74,-30.16"/>
</g>
<!-- 124&#45;&gt;106 -->
<g id="edge11" class="edge">
<title>124&#45;&gt;106</title>
<path fill="none" stroke="black" stroke-width="2" d="M841.15,-145.37C855.11,-145.58 869.23,-145.8 883.35,-146.02"/>
<polygon fill="black" stroke="black" stroke-width="2" points="883.53,-147.77 888.55,-146.1 883.58,-144.27 883.53,-147.77"/>
</g>
<!-- 149 -->
<g id="node14" class="node">
<title>149</title>
<polygon fill="violet" stroke="black" points="312.35,-129.92 312.35,-154.08 234.84,-171.16 125.23,-171.16 47.71,-154.08 47.71,-129.92 125.23,-112.84 234.84,-112.84 312.35,-129.92"/>
<polygon fill="none" stroke="black" points="316.35,-126.7 316.35,-157.3 235.28,-175.17 124.79,-175.17 43.72,-157.3 43.72,-126.7 124.79,-108.83 235.28,-108.83 316.35,-126.7"/>
<text text-anchor="start" x="87.79" y="-145.8" font-family="Helvetica,Arial,sans-serif" font-size="14.00">__wrappers__.constructor</text>
<text text-anchor="middle" x="180.03" y="-130.8" font-family="Helvetica,Arial,sans-serif" font-size="14.00">[&#39;constructor&#39;]</text>
</g>
<!-- 149&#45;&gt;124 -->
<g id="edge13" class="edge">
<title>149&#45;&gt;124</title>
<path fill="none" stroke="black" stroke-width="2" d="M316.39,-142C341.2,-142 367.7,-142 394.32,-142"/>
<polygon fill="black" stroke="black" stroke-width="2" points="394.65,-143.75 399.65,-142 394.65,-140.25 394.65,-143.75"/>
</g>
<!-- 178 -->
<g id="node15" class="node">
<title>178</title>
<ellipse fill="tomato" stroke="black" cx="621.22" cy="-34" rx="224.31" ry="26.74"/>
<text text-anchor="start" x="470.72" y="-37.8" font-family="Helvetica,Arial,sans-serif" font-size="14.00">openzeppelin.upgrades.presets.Proxy.__default__</text>
<text text-anchor="middle" x="621.22" y="-22.8" font-family="Helvetica,Arial,sans-serif" font-size="14.00">[&#39;external&#39;, &#39;raw_input&#39;, &#39;raw_output&#39;]</text>
</g>
<!-- 178&#45;&gt;8 -->
<g id="edge15" class="edge">
<title>178&#45;&gt;8</title>
<path fill="none" stroke="black" stroke-width="2" d="M840.02,-28.13C876.06,-27.16 913.2,-26.16 948.58,-25.21"/>
<polygon fill="black" stroke="black" stroke-width="2" points="948.84,-26.95 953.79,-25.07 948.75,-23.45 948.84,-26.95"/>
</g>
<!-- 178&#45;&gt;100 -->
<g id="edge14" class="edge">
<title>178&#45;&gt;100</title>
<path fill="none" stroke="black" stroke-width="2" d="M810.24,-48.47C860.54,-52.34 914.74,-56.51 964.46,-60.34"/>
<polygon fill="black" stroke="black" stroke-width="2" points="964.44,-62.09 969.56,-60.73 964.71,-58.6 964.44,-62.09"/>
</g>
<!-- 196 -->
<g id="node16" class="node">
<title>196</title>
<polygon fill="tomato" stroke="black" points="356.1,-21.92 356.1,-46.08 252.96,-63.16 107.1,-63.16 3.97,-46.08 3.97,-21.92 107.1,-4.84 252.96,-4.84 356.1,-21.92"/>
<polygon fill="none" stroke="black" points="360.1,-18.52 360.1,-49.48 253.29,-67.17 106.78,-67.17 -0.03,-49.48 -0.03,-18.52 106.78,-0.83 253.29,-0.83 360.1,-18.52"/>
<text text-anchor="start" x="54.76" y="-37.8" font-family="Helvetica,Arial,sans-serif" font-size="14.00">__wrappers__.__default__</text>
<text text-anchor="middle" x="180.03" y="-22.8" font-family="Helvetica,Arial,sans-serif" font-size="14.00">[&#39;external&#39;, &#39;raw_input&#39;, &#39;raw_output&#39;]</text>
</g>
<!-- 196&#45;&gt;178 -->
<g id="edge16" class="edge">
<title>196&#45;&gt;178</title>
<path fill="none" stroke="black" stroke-width="2" d="M360.3,-34C370.7,-34 381.22,-34 391.77,-34"/>
<polygon fill="black" stroke="black" stroke-width="2" points="391.95,-35.75 396.95,-34 391.95,-32.25 391.95,-35.75"/>
</g>
</g>
</svg>
