<?xml version="1.0" encoding="UTF-8" standalone="no"?>
<!DOCTYPE svg PUBLIC "-//W3C//DTD SVG 1.1//EN"
 "http://www.w3.org/Graphics/SVG/1.1/DTD/svg11.dtd">
<!-- Generated by graphviz version 2.43.0 (0)
 -->
<!-- Title: CarbonableProxy Pages: 1 -->
<svg width="2552pt" height="274pt"
 viewBox="0.00 0.00 2552.15 274.00" xmlns="http://www.w3.org/2000/svg" xmlns:xlink="http://www.w3.org/1999/xlink">
<g id="graph0" class="graph" transform="scale(1 1) rotate(0) translate(4 270)">
<title>CarbonableProxy</title>
<polygon fill="white" stroke="transparent" points="-4,4 -4,-270 2548.15,-270 2548.15,4 -4,4"/>
<!-- 0 -->
<g id="node1" class="node">
<title>0</title>
<ellipse fill="lightcoral" stroke="black" cx="2280.92" cy="-248" rx="148.67" ry="18"/>
<text text-anchor="middle" x="2280.92" y="-244.3" font-family="Helvetica,Arial,sans-serif" font-size="14.00">starkware.cairo.common.alloc.alloc</text>
</g>
<!-- 3 -->
<g id="node2" class="node">
<title>3</title>
<ellipse fill="lightcoral" stroke="black" cx="1709.17" cy="-160" rx="196.07" ry="18"/>
<text text-anchor="middle" x="1709.17" y="-156.3" font-family="Helvetica,Arial,sans-serif" font-size="14.00">starkware.cairo.common.math.assert_not_zero</text>
</g>
<!-- 8 -->
<g id="node3" class="node">
<title>8</title>
<ellipse fill="lightcoral" stroke="black" cx="1145.72" cy="-20" rx="198.47" ry="18"/>
<text text-anchor="middle" x="1145.72" y="-16.3" font-family="Helvetica,Arial,sans-serif" font-size="14.00">starkware.starknet.common.syscalls.library_call</text>
</g>
<!-- 20 -->
<g id="node4" class="node">
<title>20</title>
<ellipse fill="lightcoral" stroke="black" cx="2280.92" cy="-18" rx="207.16" ry="18"/>
<text text-anchor="middle" x="2280.92" y="-14.3" font-family="Helvetica,Arial,sans-serif" font-size="14.00">starkware.starknet.common.syscalls.storage_read</text>
</g>
<!-- 28 -->
<g id="node5" class="node">
<title>28</title>
<ellipse fill="lightcoral" stroke="black" cx="2280.92" cy="-126" rx="207.96" ry="18"/>
<text text-anchor="middle" x="2280.92" y="-122.3" font-family="Helvetica,Arial,sans-serif" font-size="14.00">starkware.starknet.common.syscalls.storage_write</text>
</g>
<!-- 36 -->
<g id="node6" class="node">
<title>36</title>
<ellipse fill="lightcoral" stroke="black" cx="2280.92" cy="-194" rx="198.76" ry="18"/>
<text text-anchor="middle" x="2280.92" y="-190.3" font-family="Helvetica,Arial,sans-serif" font-size="14.00">starkware.starknet.common.syscalls.emit_event</text>
</g>
<!-- 46 -->
<g id="node7" class="node">
<title>46</title>
<ellipse fill="lightcoral" stroke="black" cx="1709.17" cy="-214" rx="190.37" ry="18"/>
<text text-anchor="middle" x="1709.17" y="-210.3" font-family="Helvetica,Arial,sans-serif" font-size="14.00">openzeppelin.upgrades.library.Upgraded.emit</text>
</g>
<!-- 46&#45;&gt;0 -->
<g id="edge1" class="edge">
<title>46&#45;&gt;0</title>
<path fill="none" stroke="black" stroke-width="2" d="M1870.77,-223.58C1956.11,-228.68 2059.96,-234.87 2141.67,-239.75"/>
<polygon fill="black" stroke="black" stroke-width="2" points="2141.93,-241.52 2147.02,-240.07 2142.14,-238.02 2141.93,-241.52"/>
<text text-anchor="middle" x="1995.7" y="-234.8" font-family="Helvetica,Arial,sans-serif" font-size="14.00">2</text>
</g>
<!-- 46&#45;&gt;36 -->
<g id="edge2" class="edge">
<title>46&#45;&gt;36</title>
<path fill="none" stroke="black" stroke-width="2" d="M1888.1,-207.75C1952.22,-205.5 2024.8,-202.96 2089.91,-200.67"/>
<polygon fill="black" stroke="black" stroke-width="2" points="2090.05,-202.42 2094.98,-200.49 2089.92,-198.92 2090.05,-202.42"/>
</g>
<!-- 70 -->
<g id="node8" class="node">
<title>70</title>
<ellipse fill="lightcoral" stroke="black" cx="2280.92" cy="-72" rx="263.45" ry="18"/>
<text text-anchor="middle" x="2280.92" y="-68.3" font-family="Helvetica,Arial,sans-serif" font-size="14.00">openzeppelin.upgrades.library.Proxy_implementation_hash.addr</text>
</g>
<!-- 75 -->
<g id="node9" class="node">
<title>75</title>
<ellipse fill="lightcoral" stroke="black" cx="1709.17" cy="-52" rx="263.45" ry="18"/>
<text text-anchor="middle" x="1709.17" y="-48.3" font-family="Helvetica,Arial,sans-serif" font-size="14.00">openzeppelin.upgrades.library.Proxy_implementation_hash.read</text>
</g>
<!-- 75&#45;&gt;20 -->
<g id="edge4" class="edge">
<title>75&#45;&gt;20</title>
<path fill="none" stroke="black" stroke-width="2" d="M1908.24,-40.18C1971.99,-36.38 2042.15,-32.19 2104.18,-28.49"/>
<polygon fill="black" stroke="black" stroke-width="2" points="2104.5,-30.22 2109.39,-28.18 2104.29,-26.73 2104.5,-30.22"/>
</g>
<!-- 75&#45;&gt;70 -->
<g id="edge3" class="edge">
<title>75&#45;&gt;70</title>
<path fill="none" stroke="black" stroke-width="2" d="M1943.55,-60.19C1975.79,-61.32 2008.93,-62.49 2041.26,-63.62"/>
<polygon fill="black" stroke="black" stroke-width="2" points="2041.38,-65.38 2046.44,-63.8 2041.5,-61.88 2041.38,-65.38"/>
</g>
<!-- 88 -->
<g id="node10" class="node">
<title>88</title>
<ellipse fill="lightcoral" stroke="black" cx="1709.17" cy="-106" rx="264.55" ry="18"/>
<text text-anchor="middle" x="1709.17" y="-102.3" font-family="Helvetica,Arial,sans-serif" font-size="14.00">openzeppelin.upgrades.library.Proxy_implementation_hash.write</text>
</g>
<!-- 88&#45;&gt;28 -->
<g id="edge6" class="edge">
<title>88&#45;&gt;28</title>
<path fill="none" stroke="black" stroke-width="2" d="M1944.79,-114.24C1990.57,-115.84 2038.13,-117.51 2082.56,-119.07"/>
<polygon fill="black" stroke="black" stroke-width="2" points="2082.62,-120.83 2087.68,-119.25 2082.74,-117.33 2082.62,-120.83"/>
</g>
<!-- 88&#45;&gt;70 -->
<g id="edge5" class="edge">
<title>88&#45;&gt;70</title>
<path fill="none" stroke="black" stroke-width="2" d="M1908.64,-94.16C1963.09,-90.91 2022.18,-87.38 2076.88,-84.12"/>
<polygon fill="black" stroke="black" stroke-width="2" points="2077.27,-85.85 2082.16,-83.8 2077.06,-82.35 2077.27,-85.85"/>
</g>
<!-- 100 -->
<g id="node11" class="node">
<title>100</title>
<ellipse fill="lightcoral" stroke="black" cx="1145.72" cy="-74" rx="257.25" ry="18"/>
<text text-anchor="middle" x="1145.72" y="-70.3" font-family="Helvetica,Arial,sans-serif" font-size="14.00">openzeppelin.upgrades.library.Proxy.get_implementation_hash</text>
</g>
<!-- 100&#45;&gt;75 -->
<g id="edge7" class="edge">
<title>100&#45;&gt;75</title>
<path fill="none" stroke="black" stroke-width="2" d="M1370.63,-65.23C1405.01,-63.88 1440.57,-62.49 1475.13,-61.13"/>
<polygon fill="black" stroke="black" stroke-width="2" points="1475.3,-62.88 1480.22,-60.93 1475.16,-59.38 1475.3,-62.88"/>
</g>
<!-- 106 -->
<g id="node12" class="node">
<title>106</title>
<ellipse fill="lightcoral" stroke="black" cx="1145.72" cy="-150" rx="261.85" ry="18"/>
<text text-anchor="middle" x="1145.72" y="-146.3" font-family="Helvetica,Arial,sans-serif" font-size="14.00">openzeppelin.upgrades.library.Proxy._set_implementation_hash</text>
</g>
<!-- 106&#45;&gt;3 -->
<g id="edge8" class="edge">
<title>106&#45;&gt;3</title>
<path fill="none" stroke="black" stroke-width="2" d="M1399.52,-154.5C1436.83,-155.17 1474.81,-155.84 1510.78,-156.48"/>
<polygon fill="black" stroke="black" stroke-width="2" points="1511.04,-158.24 1516.07,-156.58 1511.1,-154.74 1511.04,-158.24"/>
</g>
<!-- 106&#45;&gt;46 -->
<g id="edge10" class="edge">
<title>106&#45;&gt;46</title>
<path fill="none" stroke="black" stroke-width="2" d="M1269.85,-165.89C1323.51,-172.66 1387.16,-180.49 1444.64,-187 1485.64,-191.65 1530.27,-196.35 1570.95,-200.5"/>
<polygon fill="black" stroke="black" stroke-width="2" points="1571.26,-202.29 1576.41,-201.06 1571.61,-198.81 1571.26,-202.29"/>
</g>
<!-- 106&#45;&gt;88 -->
<g id="edge9" class="edge">
<title>106&#45;&gt;88</title>
<path fill="none" stroke="black" stroke-width="2" d="M1318.99,-136.5C1385.75,-131.27 1462.17,-125.28 1529.53,-120"/>
<polygon fill="black" stroke="black" stroke-width="2" points="1529.93,-121.72 1534.77,-119.59 1529.65,-118.23 1529.93,-121.72"/>
</g>
<!-- 124 -->
<g id="node13" class="node">
<title>124</title>
<ellipse fill="violet" stroke="black" cx="621.93" cy="-142" rx="222.06" ry="26.74"/>
<text text-anchor="start" x="472.93" y="-145.8" font-family="Helvetica,Arial,sans-serif" font-size="14.00">openzeppelin.upgrades.presets.Proxy.constructor</text>
<text text-anchor="middle" x="621.93" y="-130.8" font-family="Helvetica,Arial,sans-serif" font-size="14.00">[&#39;constructor&#39;]</text>
</g>
<!-- 124&#45;&gt;8 -->
<g id="edge12" class="edge">
<title>124&#45;&gt;8</title>
<path fill="none" stroke="black" stroke-width="2" d="M716.08,-117.6C757.05,-105.47 805.2,-89.26 846.79,-70 864.36,-61.86 865.47,-53.27 883.79,-47 908.13,-38.67 934.43,-32.71 960.64,-28.46"/>
<polygon fill="black" stroke="black" stroke-width="2" points="961.22,-30.14 965.88,-27.64 960.67,-26.69 961.22,-30.14"/>
</g>
<!-- 124&#45;&gt;106 -->
<g id="edge11" class="edge">
<title>124&#45;&gt;106</title>
<path fill="none" stroke="black" stroke-width="2" d="M842.32,-145.36C856.35,-145.58 870.54,-145.8 884.72,-146.01"/>
<polygon fill="black" stroke="black" stroke-width="2" points="884.92,-147.77 889.95,-146.09 884.97,-144.27 884.92,-147.77"/>
</g>
<!-- 149 -->
<g id="node14" class="node">
<title>149</title>
<polygon fill="violet" stroke="black" points="312.35,-129.92 312.35,-154.08 234.84,-171.16 125.23,-171.16 47.71,-154.08 47.71,-129.92 125.23,-112.84 234.84,-112.84 312.35,-129.92"/>
<polygon fill="none" stroke="black" points="316.35,-126.7 316.35,-157.3 235.28,-175.17 124.79,-175.17 43.72,-157.3 43.72,-126.7 124.79,-108.83 235.28,-108.83 316.35,-126.7"/>
<text text-anchor="start" x="87.79" y="-145.8" font-family="Helvetica,Arial,sans-serif" font-size="14.00">__wrappers__.constructor</text>
<text text-anchor="middle" x="180.03" y="-130.8" font-family="Helvetica,Arial,sans-serif" font-size="14.00">[&#39;constructor&#39;]</text>
</g>
<!-- 149&#45;&gt;124 -->
<g id="edge13" class="edge">
<title>149&#45;&gt;124</title>
<path fill="none" stroke="black" stroke-width="2" d="M316.61,-142C341.34,-142 367.75,-142 394.29,-142"/>
<polygon fill="black" stroke="black" stroke-width="2" points="394.6,-143.75 399.6,-142 394.6,-140.25 394.6,-143.75"/>
</g>
<!-- 178 -->
<g id="node15" class="node">
<title>178</title>
<ellipse fill="tomato" stroke="black" cx="621.93" cy="-34" rx="224.72" ry="26.74"/>
<text text-anchor="start" x="470.93" y="-37.8" font-family="Helvetica,Arial,sans-serif" font-size="14.00">openzeppelin.upgrades.presets.Proxy.__default__</text>
<text text-anchor="middle" x="621.93" y="-22.8" font-family="Helvetica,Arial,sans-serif" font-size="14.00">[&#39;external&#39;, &#39;raw_input&#39;, &#39;raw_output&#39;]</text>
</g>
<!-- 178&#45;&gt;8 -->
<g id="edge15" class="edge">
<title>178&#45;&gt;8</title>
<path fill="none" stroke="black" stroke-width="2" d="M841.57,-28.13C877.61,-27.17 914.76,-26.17 950.16,-25.22"/>
<polygon fill="black" stroke="black" stroke-width="2" points="950.42,-26.96 955.37,-25.08 950.33,-23.47 950.42,-26.96"/>
</g>
<!-- 178&#45;&gt;100 -->
<g id="edge14" class="edge">
<title>178&#45;&gt;100</title>
<path fill="none" stroke="black" stroke-width="2" d="M811.67,-48.47C862.17,-52.34 916.58,-56.51 966.49,-60.34"/>
<polygon fill="black" stroke="black" stroke-width="2" points="966.49,-62.09 971.61,-60.73 966.76,-58.6 966.49,-62.09"/>
</g>
<!-- 196 -->
<g id="node16" class="node">
<title>196</title>
<polygon fill="tomato" stroke="black" points="356.1,-21.92 356.1,-46.08 252.96,-63.16 107.1,-63.16 3.97,-46.08 3.97,-21.92 107.1,-4.84 252.96,-4.84 356.1,-21.92"/>
<polygon fill="none" stroke="black" points="360.1,-18.52 360.1,-49.48 253.29,-67.17 106.78,-67.17 -0.03,-49.48 -0.03,-18.52 106.78,-0.83 253.29,-0.83 360.1,-18.52"/>
<text text-anchor="start" x="54.76" y="-37.8" font-family="Helvetica,Arial,sans-serif" font-size="14.00">__wrappers__.__default__</text>
<text text-anchor="middle" x="180.03" y="-22.8" font-family="Helvetica,Arial,sans-serif" font-size="14.00">[&#39;external&#39;, &#39;raw_input&#39;, &#39;raw_output&#39;]</text>
</g>
<!-- 196&#45;&gt;178 -->
<g id="edge16" class="edge">
<title>196&#45;&gt;178</title>
<path fill="none" stroke="black" stroke-width="2" d="M360.27,-34C370.69,-34 381.24,-34 391.81,-34"/>
<polygon fill="black" stroke="black" stroke-width="2" points="392,-35.75 397,-34 392,-32.25 392,-35.75"/>
</g>
</g>
</svg>
